<?xml version="1.0" encoding="utf-8"?>
<!-- Generator: Adobe Illustrator 16.0.0, SVG Export Plug-In . SVG Version: 6.00 Build 0)  -->
<!DOCTYPE svg PUBLIC "-//W3C//DTD SVG 1.1//EN" "http://www.w3.org/Graphics/SVG/1.1/DTD/svg11.dtd">
<svg version="1.1" id="Camada_1" xmlns="http://www.w3.org/2000/svg" xmlns:xlink="http://www.w3.org/1999/xlink" x="0px" y="0px"
	 width="130px" height="40px" viewBox="0 0 130 40" enable-background="new 0 0 130 40" xml:space="preserve">
<g>
	<path fill="#262424" d="M24.922,3.131h0.684h1.001c1.325,0,2.366,0.322,3.123,0.969s1.135,1.533,1.135,2.658
		c0,1.174-0.365,2.094-1.094,2.766c-0.729,0.67-1.73,1.006-3.003,1.006h-1.162h-0.684V3.131z M26.29,9.254h0.479
		c0.869,0,1.541-0.211,2.014-0.631c0.474-0.422,0.71-1.02,0.71-1.791c0-0.775-0.25-1.373-0.752-1.795s-1.212-0.633-2.134-0.633
		H26.29V9.254z"/>
	<path fill="#262424" d="M34.297,10.715c-0.801,0-1.483-0.287-2.048-0.861c-0.565-0.576-0.847-1.273-0.847-2.094
		s0.282-1.52,0.847-2.098s1.248-0.867,2.048-0.867c0.804,0,1.488,0.289,2.053,0.867s0.847,1.277,0.847,2.098
		c0,0.199-0.016,0.395-0.049,0.586h-4.326c0.075,0.242,0.2,0.459,0.376,0.654c0.303,0.332,0.68,0.498,1.133,0.498
		c0.28,0,0.536-0.064,0.769-0.195c0.233-0.129,0.404-0.305,0.515-0.521h1.406c-0.179,0.588-0.516,1.059-1.011,1.408
		S34.945,10.715,34.297,10.715z M35.806,7.281c-0.065-0.293-0.197-0.549-0.396-0.768c-0.299-0.334-0.67-0.502-1.113-0.502
		s-0.814,0.168-1.113,0.502c-0.192,0.223-0.326,0.477-0.4,0.768H35.806z"/>
	<path fill="#262424" d="M40.066,6.48c-0.033-0.156-0.095-0.273-0.186-0.352s-0.208-0.117-0.352-0.117
		c-0.153,0-0.278,0.043-0.374,0.131S39.01,6.346,39.01,6.484c0,0.135,0.06,0.242,0.181,0.322c0.12,0.082,0.352,0.174,0.693,0.279
		c0.583,0.178,0.999,0.402,1.25,0.67c0.247,0.266,0.371,0.621,0.371,1.064c0,0.557-0.184,1.012-0.552,1.365
		c-0.368,0.352-0.84,0.529-1.417,0.529c-0.583,0-1.064-0.178-1.443-0.535c-0.379-0.355-0.582-0.822-0.608-1.398h1.367
		c0.039,0.234,0.119,0.412,0.24,0.535c0.12,0.121,0.277,0.182,0.469,0.182c0.182,0,0.332-0.051,0.449-0.15
		c0.117-0.102,0.176-0.232,0.176-0.391c0-0.174-0.053-0.307-0.159-0.4c-0.108-0.096-0.314-0.189-0.621-0.283
		c-0.616-0.189-1.058-0.418-1.325-0.686c-0.263-0.264-0.395-0.611-0.395-1.045c0-0.514,0.176-0.934,0.527-1.26
		c0.352-0.324,0.803-0.488,1.354-0.488c0.482,0,0.896,0.162,1.241,0.484s0.533,0.723,0.562,1.201H40.066z"/>
	<path fill="#262424" d="M44.698,10.715c-0.801,0-1.483-0.287-2.048-0.861c-0.565-0.576-0.847-1.273-0.847-2.094
		s0.282-1.52,0.847-2.098s1.248-0.867,2.048-0.867c0.804,0,1.488,0.289,2.053,0.867s0.847,1.277,0.847,2.098
		c0,0.199-0.016,0.395-0.049,0.586h-4.326C43.298,8.588,43.424,8.805,43.6,9c0.303,0.332,0.68,0.498,1.133,0.498
		c0.28,0,0.536-0.064,0.769-0.195c0.233-0.129,0.404-0.305,0.515-0.521h1.406c-0.179,0.588-0.516,1.059-1.011,1.408
		S45.346,10.715,44.698,10.715z M46.207,7.281c-0.065-0.293-0.197-0.549-0.396-0.768c-0.299-0.334-0.67-0.502-1.113-0.502
		s-0.814,0.168-1.113,0.502c-0.192,0.223-0.326,0.477-0.4,0.768H46.207z"/>
	<path fill="#262424" d="M48.239,4.98h0.62h0.62v0.479c0.43-0.441,0.944-0.664,1.543-0.664c0.658,0,1.179,0.223,1.565,0.666
		c0.386,0.445,0.579,1.045,0.579,1.801v3.268h-0.664h-0.669V7.559c0-0.508-0.094-0.893-0.283-1.156s-0.464-0.396-0.825-0.396
		c-0.384,0-0.672,0.135-0.864,0.4c-0.192,0.268-0.288,0.668-0.288,1.201v2.922h-0.664h-0.669V4.98z"/>
	<path fill="#262424" d="M53.527,4.98h0.703h0.708l1.359,3.83h-0.001l1.352-3.83h0.703h0.708l-2.242,5.549h-0.527h-0.527
		L53.527,4.98z"/>
	<path fill="#262424" d="M60.009,9.854c-0.574-0.576-0.861-1.273-0.861-2.094s0.287-1.52,0.861-2.098s1.271-0.867,2.088-0.867
		c0.82,0,1.518,0.289,2.092,0.867S65.05,6.939,65.05,7.76s-0.287,1.518-0.861,2.094c-0.574,0.574-1.271,0.861-2.092,0.861
		C61.279,10.715,60.583,10.428,60.009,9.854z M63.249,9c0.309-0.332,0.463-0.744,0.463-1.24s-0.154-0.91-0.463-1.246
		c-0.31-0.334-0.693-0.502-1.152-0.502c-0.456,0-0.839,0.168-1.148,0.502c-0.309,0.336-0.463,0.75-0.463,1.246S60.64,8.668,60.948,9
		c0.31,0.332,0.692,0.498,1.148,0.498C62.556,9.498,62.939,9.332,63.249,9z"/>
	<path fill="#262424" d="M65.642,3.131h0.664h0.669v7.398h-0.664h-0.669V3.131z"/>
	<path fill="#262424" d="M67.331,4.98h0.703h0.708l1.358,3.83l0,0l1.352-3.83h0.703h0.708l-2.241,5.549h-0.527h-0.527L67.331,4.98z"
		/>
	<path fill="#262424" d="M73.235,3.131h1.332v1.221h-1.332V3.131z M73.235,4.98h0.664h0.668v5.549h-0.664h-0.668V4.98z"/>
	<path fill="#262424" d="M77.991,10.715c-0.759,0-1.406-0.287-1.941-0.861c-0.535-0.576-0.803-1.273-0.803-2.094
		s0.277-1.52,0.834-2.098s1.23-0.867,2.021-0.867c0.635,0.008,1.186,0.217,1.65,0.631V3.131h0.664h0.67v7.398h-0.611H79.86V9.928
		C79.343,10.453,78.72,10.715,77.991,10.715z M78.206,6.002c-0.459,0-0.844,0.168-1.155,0.504c-0.312,0.338-0.466,0.756-0.466,1.254
		c0,0.496,0.154,0.91,0.463,1.246c0.31,0.334,0.693,0.502,1.152,0.502c0.463,0,0.85-0.168,1.162-0.502
		c0.313-0.336,0.469-0.752,0.469-1.25c0-0.5-0.154-0.916-0.467-1.252C79.054,6.17,78.668,6.002,78.206,6.002z"/>
	<path fill="#262424" d="M82.417,9.854c-0.574-0.576-0.861-1.273-0.861-2.094s0.287-1.52,0.861-2.098s1.27-0.867,2.088-0.867
		c0.82,0,1.518,0.289,2.092,0.867s0.861,1.277,0.861,2.098s-0.287,1.518-0.861,2.094c-0.574,0.574-1.271,0.861-2.092,0.861
		C83.687,10.715,82.991,10.428,82.417,9.854z M85.657,9c0.309-0.332,0.463-0.744,0.463-1.24s-0.154-0.91-0.463-1.246
		c-0.311-0.334-0.693-0.502-1.152-0.502c-0.457,0-0.84,0.168-1.148,0.502c-0.309,0.336-0.463,0.75-0.463,1.246
		S83.048,8.668,83.356,9s0.691,0.498,1.148,0.498C84.964,9.498,85.347,9.332,85.657,9z"/>
	<path fill="#262424" d="M90.573,4.98h0.611H91.8v0.586c0.521-0.518,1.139-0.773,1.855-0.771c0.762,0,1.41,0.289,1.943,0.867
		s0.801,1.277,0.801,2.098s-0.268,1.518-0.801,2.094c-0.533,0.574-1.184,0.861-1.949,0.861c-0.66-0.004-1.24-0.223-1.742-0.66v2.324
		h-0.664h-0.67V4.98z M93.44,9.508c0.459,0,0.844-0.168,1.154-0.502c0.311-0.336,0.467-0.75,0.467-1.246
		c0-0.498-0.154-0.916-0.465-1.254c-0.309-0.336-0.693-0.504-1.152-0.504s-0.842,0.168-1.152,0.502
		c-0.309,0.336-0.463,0.752-0.463,1.252c0,0.498,0.154,0.914,0.463,1.25C92.603,9.34,92.985,9.508,93.44,9.508z"/>
	<path fill="#262424" d="M97.618,9.854c-0.574-0.576-0.861-1.273-0.861-2.094s0.287-1.52,0.861-2.098s1.27-0.867,2.088-0.867
		c0.82,0,1.518,0.289,2.092,0.867s0.861,1.277,0.861,2.098s-0.287,1.518-0.861,2.094c-0.574,0.574-1.271,0.861-2.092,0.861
		C98.888,10.715,98.192,10.428,97.618,9.854z M100.858,9c0.309-0.332,0.463-0.744,0.463-1.24s-0.154-0.91-0.463-1.246
		c-0.311-0.334-0.693-0.502-1.152-0.502c-0.457,0-0.84,0.168-1.148,0.502c-0.309,0.336-0.463,0.75-0.463,1.246
		S98.249,8.668,98.558,9s0.691,0.498,1.148,0.498C100.165,9.498,100.548,9.332,100.858,9z"/>
	<path fill="#262424" d="M103.339,4.98h0.619h0.621V5.4l0.063-0.088c0.248-0.344,0.631-0.518,1.148-0.518h0.088v1.27
		c-0.375,0.027-0.662,0.125-0.859,0.293c-0.232,0.203-0.348,0.521-0.348,0.957v3.215h-0.664h-0.668V4.98z"/>
</g>
<g>
	<path d="M9.114,19.549v6.984c0,1.137,0.408,1.705,1.223,1.705c0.346,0,0.642-0.121,0.884-0.355
		c0.241-0.238,0.365-0.523,0.365-0.861c0-0.348-0.115-0.639-0.341-0.876c-0.229-0.237-0.508-0.357-0.838-0.357
		c-0.236,0-0.502,0.103-0.806,0.31v-3.521c0.377-0.035,0.663-0.053,0.856-0.053c1.202,0,2.231,0.432,3.09,1.299
		c0.858,0.867,1.286,1.912,1.286,3.131c0,1.25-0.435,2.301-1.307,3.156c-0.872,0.855-1.943,1.283-3.215,1.283
		c-0.64,0-1.261-0.141-1.868-0.42c-0.607-0.277-1.108-0.654-1.499-1.127c-0.687-0.822-1.027-1.885-1.027-3.193v-7.104H9.114
		L9.114,19.549z M16.03,22.815h3.197v4.812c0,0.488,0.201,0.73,0.606,0.73c0.399,0,0.598-0.242,0.598-0.73v-4.812h3.197v4.755
		c0,1.105-0.367,2.039-1.103,2.801c-0.736,0.762-1.636,1.141-2.701,1.141c-1.212,0-2.19-0.441-2.93-1.324
		c-0.575-0.691-0.865-1.648-0.865-2.875V22.815L16.03,22.815z M30.629,22.815v3.367c-0.45,0-0.759,0.086-0.929,0.255
		c-0.165,0.166-0.274,0.5-0.32,0.994c-0.146,1.65-0.786,2.811-1.915,3.488c-0.597,0.354-1.446,0.531-2.547,0.531h-0.443v-3.385
		h0.146c0.513,0,0.878-0.107,1.098-0.322c0.218-0.213,0.346-0.589,0.382-1.123c0.044-0.872,0.125-1.486,0.242-1.84
		c0.116-0.352,0.355-0.703,0.715-1.052c0.625-0.61,1.494-0.914,2.605-0.914H30.629L30.629,22.815z M36.7,27.297l3.171-0.121
		c-0.09,1.232-0.548,2.244-1.374,3.039c-0.829,0.789-1.832,1.188-3.02,1.188c-1.251,0-2.312-0.436-3.174-1.309
		c-0.865-0.871-1.297-1.941-1.297-3.207c0-1.203,0.436-2.232,1.308-3.088c0.872-0.854,1.919-1.281,3.139-1.281
		c1.065,0,2.005,0.336,2.82,1.01c0.816,0.672,1.321,1.528,1.521,2.57l-3.238,0.121c-0.28-0.366-0.633-0.547-1.061-0.547
		c-0.366,0-0.667,0.121-0.899,0.359c-0.234,0.24-0.351,0.543-0.351,0.908c0,0.371,0.125,0.68,0.374,0.932
		c0.247,0.25,0.556,0.375,0.927,0.375C36.087,28.246,36.471,27.928,36.7,27.297L36.7,27.297z M45.794,28.021v3.311
		c-0.262,0.047-0.502,0.07-0.717,0.07c-1.281,0-2.352-0.424-3.206-1.268c-0.856-0.844-1.281-1.9-1.281-3.172
		c0-1.238,0.432-2.286,1.295-3.146c0.863-0.861,1.914-1.293,3.15-1.293c1.378,0,2.466,0.402,3.261,1.211
		c0.796,0.807,1.193,1.91,1.193,3.305v4.182h-3.198V27.27c0-0.449-0.111-0.809-0.331-1.077c-0.218-0.269-0.513-0.404-0.883-0.404
		c-0.336,0-0.628,0.124-0.872,0.368c-0.246,0.246-0.368,0.538-0.368,0.873c0,0.355,0.11,0.646,0.332,0.875
		c0.223,0.229,0.505,0.342,0.847,0.342C45.296,28.246,45.556,28.17,45.794,28.021L45.794,28.021z"/>
	<path d="M78.786,28.133v3.311c-0.264,0.047-0.504,0.068-0.719,0.068c-1.281,0-2.352-0.422-3.207-1.266s-1.281-1.9-1.281-3.173
		c0-1.237,0.432-2.285,1.297-3.146c0.863-0.86,1.914-1.292,3.15-1.292c1.377,0,2.465,0.402,3.26,1.211
		c0.797,0.807,1.193,1.908,1.193,3.305v4.182H79.28v-3.951c0-0.451-0.109-0.81-0.328-1.078c-0.219-0.27-0.514-0.402-0.885-0.402
		c-0.336,0-0.627,0.123-0.871,0.368c-0.246,0.245-0.369,0.536-0.369,0.871c0,0.356,0.111,0.646,0.332,0.876
		c0.223,0.229,0.506,0.342,0.846,0.342C78.286,28.357,78.546,28.281,78.786,28.133L78.786,28.133z M88.815,22.722v3.421
		c-0.223-0.126-0.426-0.188-0.607-0.188c-0.58,0-0.873,0.445-0.873,1.332v4.045h-3.197V26.67c0-1.228,0.336-2.213,1.01-2.943
		c0.67-0.732,1.568-1.098,2.693-1.098C88.091,22.629,88.415,22.66,88.815,22.722L88.815,22.722z M92.749,22.806v8.526h-3.197v-8.526
		H92.749L92.749,22.806z M91.159,19c0.432,0,0.809,0.152,1.123,0.459c0.318,0.303,0.475,0.664,0.475,1.08
		c0,0.445-0.148,0.812-0.447,1.094c-0.299,0.286-0.684,0.43-1.15,0.43s-0.852-0.144-1.15-0.43c-0.299-0.282-0.449-0.648-0.449-1.094
		c0-0.416,0.158-0.777,0.477-1.08C90.351,19.152,90.728,19,91.159,19L91.159,19z M98.468,22.629c1.209,0,2.246,0.435,3.109,1.303
		c0.863,0.871,1.295,1.912,1.295,3.127c0,1.229-0.438,2.279-1.313,3.146c-0.873,0.865-1.928,1.299-3.166,1.299
		s-2.293-0.436-3.172-1.305s-1.316-1.918-1.316-3.141c0-1.25,0.438-2.3,1.316-3.152C96.101,23.055,97.183,22.629,98.468,22.629
		L98.468,22.629z M98.384,25.783c-0.34,0-0.633,0.123-0.871,0.371c-0.24,0.248-0.359,0.553-0.359,0.909s0.123,0.657,0.365,0.909
		c0.242,0.25,0.531,0.375,0.865,0.375c0.342,0,0.633-0.125,0.877-0.375c0.242-0.252,0.363-0.553,0.363-0.909
		s-0.119-0.661-0.357-0.909C99.026,25.906,98.733,25.783,98.384,25.783L98.384,25.783z M109.233,27.406l3.172-0.119
		c-0.09,1.23-0.549,2.244-1.375,3.037c-0.828,0.791-1.832,1.188-3.02,1.188c-1.25,0-2.311-0.434-3.174-1.307
		c-0.863-0.871-1.295-1.941-1.295-3.208c0-1.202,0.434-2.233,1.307-3.088s1.92-1.28,3.141-1.28c1.064,0,2.004,0.335,2.816,1.009
		c0.818,0.671,1.322,1.53,1.525,2.571l-3.24,0.119c-0.281-0.363-0.633-0.545-1.063-0.545c-0.363,0-0.664,0.119-0.898,0.359
		c-0.232,0.24-0.35,0.542-0.35,0.908c0,0.369,0.127,0.68,0.373,0.932c0.248,0.25,0.559,0.375,0.928,0.375
		C108.622,28.357,109.005,28.039,109.233,27.406L109.233,27.406z M118.331,28.133v3.311c-0.264,0.047-0.504,0.068-0.719,0.068
		c-1.281,0-2.352-0.422-3.207-1.266s-1.281-1.9-1.281-3.173c0-1.237,0.432-2.285,1.295-3.146c0.865-0.86,1.914-1.292,3.152-1.292
		c1.377,0,2.465,0.402,3.26,1.211c0.795,0.807,1.193,1.908,1.193,3.305v4.182h-3.199v-3.951c0-0.451-0.111-0.81-0.328-1.078
		c-0.221-0.27-0.516-0.402-0.885-0.402c-0.336,0-0.629,0.123-0.873,0.368c-0.246,0.245-0.367,0.536-0.367,0.871
		c0,0.356,0.111,0.646,0.332,0.876c0.223,0.229,0.506,0.342,0.848,0.342C117.831,28.357,118.091,28.281,118.331,28.133
		L118.331,28.133z"/>
	<g>
		<path fill="#262424" d="M73.354,32.23h0.205h1.16c0.289,0,0.514,0.084,0.676,0.252c0.164,0.17,0.244,0.404,0.244,0.703
			c0,0.324-0.082,0.574-0.25,0.748c-0.166,0.176-0.404,0.262-0.713,0.262h-0.91v1.445H73.56h-0.205V32.23z M73.767,33.807h0.809
			c0.219,0,0.379-0.051,0.482-0.15s0.156-0.256,0.156-0.469c0-0.193-0.049-0.336-0.146-0.43c-0.098-0.092-0.246-0.137-0.447-0.137
			h-0.854V33.807z"/>
		<path fill="#262424" d="M76.14,33.158h0.176h0.178v0.443c0.031-0.066,0.064-0.129,0.1-0.186c0.143-0.219,0.32-0.33,0.539-0.33
			c0.035,0,0.066,0.002,0.096,0.008v0.441l-0.08-0.008c-0.197,0-0.352,0.064-0.463,0.191s-0.168,0.305-0.168,0.529v1.393h-0.189
			H76.14V33.158z"/>
		<path fill="#262424" d="M77.649,35.35c-0.191-0.236-0.287-0.551-0.287-0.938c0-0.396,0.096-0.717,0.287-0.959
			c0.189-0.244,0.439-0.367,0.75-0.367c0.313,0,0.563,0.123,0.752,0.367c0.189,0.242,0.285,0.563,0.285,0.959
			c0,0.387-0.096,0.701-0.285,0.938c-0.189,0.238-0.439,0.355-0.752,0.355C78.089,35.705,77.839,35.588,77.649,35.35z M78.874,35.09
			c0.119-0.172,0.178-0.396,0.178-0.68c0-0.291-0.059-0.523-0.178-0.699c-0.117-0.174-0.277-0.264-0.475-0.264
			c-0.199,0-0.357,0.09-0.475,0.264c-0.119,0.176-0.18,0.408-0.18,0.699c0,0.283,0.061,0.508,0.18,0.68
			c0.117,0.17,0.275,0.254,0.475,0.254C78.597,35.344,78.757,35.26,78.874,35.09z"/>
		<path fill="#262424" d="M79.815,33.158h0.168h0.17v0.396l0.053-0.094c0.156-0.25,0.379-0.375,0.666-0.375
			c0.27,0,0.488,0.123,0.652,0.367c0.166,0.242,0.248,0.563,0.248,0.959c0,0.363-0.094,0.668-0.277,0.918
			c-0.186,0.252-0.41,0.375-0.678,0.375c-0.266,0-0.473-0.104-0.621-0.314l-0.006-0.006v1.244h-0.188h-0.188V33.158z M80.776,35.352
			c0.186,0,0.332-0.086,0.443-0.256s0.166-0.395,0.166-0.678c0-0.328-0.049-0.568-0.146-0.725c-0.1-0.156-0.252-0.232-0.461-0.232
			c-0.193,0-0.342,0.09-0.447,0.273s-0.158,0.445-0.158,0.783c0,0.252,0.057,0.455,0.166,0.605
			C80.448,35.275,80.595,35.352,80.776,35.352z"/>
		<path fill="#262424" d="M82.788,35.705c-0.213,0-0.387-0.064-0.518-0.195s-0.195-0.303-0.195-0.516c0-0.221,0.057-0.4,0.172-0.533
			c0.115-0.135,0.279-0.217,0.492-0.246l0.463-0.057c0.07-0.01,0.135-0.021,0.193-0.037c0.049-0.012,0.088-0.039,0.117-0.08
			c0.031-0.043,0.045-0.092,0.045-0.148v-0.074c0-0.123-0.045-0.217-0.133-0.287c-0.088-0.068-0.213-0.102-0.377-0.102
			c-0.156,0-0.277,0.041-0.361,0.119c-0.084,0.08-0.133,0.199-0.146,0.357h-0.355c0.023-0.279,0.109-0.484,0.262-0.619
			c0.15-0.135,0.369-0.201,0.658-0.201c0.264,0,0.467,0.064,0.611,0.193c0.146,0.131,0.219,0.309,0.219,0.539v1.379
			c0,0.055,0.012,0.094,0.031,0.121c0.021,0.023,0.055,0.037,0.1,0.037c0.016,0,0.057-0.006,0.119-0.021v0.305
			c-0.039,0.016-0.078,0.027-0.117,0.037s-0.07,0.014-0.094,0.014c-0.145,0-0.246-0.041-0.305-0.123
			c-0.041-0.059-0.066-0.148-0.084-0.268c-0.033,0.045-0.072,0.09-0.115,0.133C83.284,35.615,83.056,35.705,82.788,35.705z
			 M83.558,34.684v-0.291c-0.088,0.043-0.188,0.074-0.299,0.094l-0.295,0.041c-0.18,0.027-0.309,0.072-0.383,0.137
			c-0.076,0.063-0.111,0.16-0.111,0.293c0,0.125,0.033,0.223,0.107,0.297c0.07,0.074,0.168,0.111,0.287,0.111
			c0.195,0,0.359-0.059,0.494-0.174c0.102-0.088,0.164-0.189,0.188-0.305c0.004-0.018,0.006-0.045,0.008-0.082
			C83.558,34.764,83.558,34.725,83.558,34.684z"/>
		<path fill="#262424" d="M85.435,36.352c0.186,0,0.33-0.061,0.434-0.182c0.105-0.117,0.158-0.283,0.158-0.49v-0.309l-0.002,0.006
			c-0.148,0.219-0.352,0.328-0.611,0.328c-0.289,0-0.523-0.117-0.701-0.355c-0.178-0.236-0.268-0.551-0.268-0.938
			c0-0.396,0.084-0.717,0.248-0.959c0.166-0.244,0.383-0.367,0.65-0.367c0.283,0,0.502,0.121,0.664,0.365l0.037,0.059v-0.352h0.359
			v2.389c0,0.361-0.088,0.643-0.258,0.846c-0.174,0.201-0.414,0.303-0.723,0.303c-0.268,0-0.479-0.066-0.635-0.197
			c-0.156-0.133-0.244-0.32-0.264-0.563h0.375c0.023,0.133,0.08,0.234,0.174,0.309C85.167,36.314,85.286,36.352,85.435,36.352z
			 M85.437,33.461c-0.207,0-0.359,0.076-0.457,0.232c-0.1,0.156-0.148,0.396-0.148,0.725c0,0.283,0.057,0.508,0.166,0.678
			s0.254,0.256,0.438,0.256c0.186,0,0.332-0.082,0.443-0.242c0.111-0.162,0.166-0.377,0.166-0.646c0-0.32-0.053-0.566-0.158-0.742
			C85.78,33.547,85.63,33.461,85.437,33.461z"/>
		<path fill="#262424" d="M87.495,35.705c-0.215,0-0.387-0.064-0.518-0.195s-0.197-0.303-0.197-0.516c0-0.221,0.059-0.4,0.174-0.533
			c0.113-0.135,0.279-0.217,0.492-0.246l0.463-0.057c0.07-0.01,0.135-0.021,0.193-0.037c0.049-0.012,0.088-0.039,0.117-0.08
			c0.029-0.043,0.045-0.092,0.045-0.148v-0.074c0-0.123-0.045-0.217-0.133-0.287c-0.09-0.068-0.215-0.102-0.377-0.102
			c-0.156,0-0.277,0.041-0.361,0.119c-0.086,0.08-0.135,0.199-0.148,0.357H86.89c0.023-0.279,0.111-0.484,0.262-0.619
			s0.369-0.201,0.66-0.201c0.262,0,0.465,0.064,0.611,0.193c0.146,0.131,0.219,0.309,0.219,0.539v1.379
			c0,0.055,0.01,0.094,0.031,0.121c0.021,0.023,0.055,0.037,0.098,0.037c0.018,0,0.059-0.006,0.119-0.021v0.305
			c-0.039,0.016-0.076,0.027-0.115,0.037c-0.041,0.01-0.072,0.014-0.094,0.014c-0.145,0-0.246-0.041-0.307-0.123
			c-0.039-0.059-0.066-0.148-0.084-0.268c-0.031,0.045-0.07,0.09-0.115,0.133C87.989,35.615,87.763,35.705,87.495,35.705z
			 M88.265,34.684v-0.291c-0.088,0.043-0.188,0.074-0.299,0.094l-0.295,0.041c-0.182,0.027-0.311,0.072-0.385,0.137
			c-0.074,0.063-0.111,0.16-0.111,0.293c0,0.125,0.035,0.223,0.109,0.297c0.07,0.074,0.166,0.111,0.287,0.111
			c0.195,0,0.359-0.059,0.492-0.174c0.104-0.088,0.166-0.189,0.188-0.305c0.006-0.018,0.008-0.045,0.008-0.082
			C88.265,34.764,88.265,34.725,88.265,34.684z"/>
		<path fill="#262424" d="M89.257,33.158h0.174h0.178v0.396c0.027-0.051,0.057-0.098,0.088-0.139c0.156-0.219,0.367-0.33,0.635-0.33
			c0.23,0,0.412,0.08,0.545,0.238s0.199,0.373,0.199,0.646v1.67h-0.188H90.7v-1.695c0-0.152-0.039-0.271-0.117-0.357
			s-0.186-0.131-0.322-0.131c-0.195,0-0.348,0.078-0.461,0.229c-0.113,0.152-0.168,0.363-0.168,0.629v1.326h-0.188h-0.188V33.158z"
			/>
		<path fill="#262424" d="M92.435,35.705c-0.283,0-0.514-0.125-0.689-0.377s-0.264-0.584-0.264-0.992
			c0-0.375,0.084-0.678,0.248-0.906c0.166-0.229,0.383-0.344,0.654-0.344c0.281,0,0.502,0.123,0.662,0.367l0.041,0.061V32.23h0.188
			h0.188v3.41h-0.176h-0.178v-0.346l-0.047,0.082C92.911,35.596,92.702,35.705,92.435,35.705z M92.476,33.465
			c-0.213,0-0.367,0.076-0.463,0.229c-0.098,0.152-0.146,0.395-0.146,0.73c0,0.281,0.057,0.506,0.166,0.676
			c0.111,0.17,0.26,0.254,0.441,0.254c0.186,0,0.334-0.082,0.443-0.242c0.113-0.162,0.17-0.377,0.17-0.646
			c0-0.32-0.053-0.566-0.16-0.74C92.821,33.551,92.671,33.465,92.476,33.465z"/>
		<path fill="#262424" d="M94.554,35.705c-0.213,0-0.385-0.064-0.518-0.195c-0.131-0.131-0.195-0.303-0.195-0.516
			c0-0.221,0.057-0.4,0.174-0.533c0.113-0.135,0.277-0.217,0.492-0.246l0.463-0.057c0.068-0.01,0.133-0.021,0.191-0.037
			c0.051-0.012,0.09-0.039,0.119-0.08c0.029-0.043,0.045-0.092,0.045-0.148v-0.074c0-0.123-0.045-0.217-0.135-0.287
			c-0.088-0.068-0.213-0.102-0.377-0.102c-0.156,0-0.275,0.041-0.361,0.119c-0.084,0.08-0.133,0.199-0.146,0.357H93.95
			c0.023-0.279,0.111-0.484,0.262-0.619s0.369-0.201,0.658-0.201c0.264,0,0.467,0.064,0.611,0.193
			c0.146,0.131,0.219,0.309,0.219,0.539v1.379c0,0.055,0.012,0.094,0.031,0.121c0.023,0.023,0.055,0.037,0.1,0.037
			c0.016,0,0.057-0.006,0.119-0.021v0.305c-0.039,0.016-0.078,0.027-0.117,0.037s-0.07,0.014-0.094,0.014
			c-0.143,0-0.246-0.041-0.305-0.123c-0.039-0.059-0.066-0.148-0.084-0.268c-0.033,0.045-0.07,0.09-0.115,0.133
			C95.05,35.615,94.823,35.705,94.554,35.705z M95.325,34.684v-0.291c-0.088,0.043-0.188,0.074-0.301,0.094l-0.295,0.041
			c-0.18,0.027-0.309,0.072-0.383,0.137c-0.074,0.063-0.111,0.16-0.111,0.293c0,0.125,0.035,0.223,0.107,0.297
			s0.168,0.111,0.287,0.111c0.197,0,0.359-0.059,0.494-0.174c0.102-0.088,0.164-0.189,0.188-0.305
			c0.004-0.018,0.006-0.045,0.008-0.082C95.323,34.764,95.325,34.725,95.325,34.684z"/>
		<path fill="#262424" d="M98.917,32.973c0-0.225,0.068-0.406,0.207-0.545c0.137-0.137,0.316-0.207,0.541-0.207
			c0.207,0,0.373,0.066,0.5,0.199c0.127,0.135,0.191,0.309,0.191,0.525c0,0.178-0.064,0.355-0.195,0.537
			c-0.1,0.143-0.225,0.264-0.375,0.365l0.52,0.719l0.031,0.043c0.066-0.178,0.109-0.361,0.129-0.553h0.352
			c-0.023,0.223-0.074,0.445-0.158,0.668c-0.025,0.07-0.053,0.135-0.084,0.199l0.549,0.717h-0.496l-0.277-0.361
			c-0.121,0.141-0.256,0.248-0.404,0.322c-0.146,0.074-0.309,0.111-0.484,0.111c-0.27,0-0.486-0.082-0.652-0.244
			c-0.166-0.164-0.25-0.377-0.25-0.645c0-0.252,0.066-0.471,0.203-0.656c0.107-0.145,0.268-0.285,0.479-0.42l-0.049-0.064
			c-0.08-0.115-0.148-0.238-0.199-0.369C98.942,33.186,98.917,33.07,98.917,32.973z M99.489,35.352c0.111,0,0.221-0.025,0.328-0.076
			s0.197-0.119,0.27-0.207L100.138,35l-0.242-0.328l-0.451-0.627c-0.141,0.086-0.252,0.176-0.336,0.273
			c-0.119,0.139-0.178,0.293-0.178,0.459c0,0.176,0.049,0.318,0.148,0.42C99.181,35.301,99.317,35.352,99.489,35.352z
			 M99.294,32.939c0,0.07,0.02,0.152,0.057,0.248c0.041,0.094,0.094,0.188,0.162,0.283l0.063,0.088
			c0.104-0.07,0.191-0.148,0.262-0.234c0.104-0.127,0.154-0.252,0.154-0.379c0-0.113-0.033-0.203-0.096-0.268
			c-0.061-0.066-0.146-0.1-0.254-0.1s-0.191,0.033-0.254,0.098S99.294,32.828,99.294,32.939z"/>
		<path fill="#262424" d="M104.243,35.641h-0.199h-0.201v-3.41h0.293h0.297l0.879,2.869l0.877-2.869h0.295h0.295v3.41h-0.193h-0.195
			V32.77l0,0l-0.877,2.871h-0.195h-0.195l-0.879-2.871l0,0V35.641z"/>
		<path fill="#262424" d="M107.935,35.705c-0.213,0-0.387-0.064-0.518-0.195s-0.197-0.303-0.197-0.516
			c0-0.221,0.059-0.4,0.174-0.533c0.115-0.135,0.277-0.217,0.492-0.246l0.463-0.057c0.07-0.01,0.135-0.021,0.193-0.037
			c0.049-0.012,0.088-0.039,0.117-0.08c0.031-0.043,0.045-0.092,0.045-0.148v-0.074c0-0.123-0.045-0.217-0.133-0.287
			c-0.088-0.068-0.215-0.102-0.377-0.102c-0.156,0-0.277,0.041-0.361,0.119c-0.084,0.08-0.135,0.199-0.148,0.357h-0.355
			c0.023-0.279,0.111-0.484,0.264-0.619c0.148-0.135,0.369-0.201,0.656-0.201c0.264,0,0.467,0.064,0.613,0.193
			c0.146,0.131,0.219,0.309,0.219,0.539v1.379c0,0.055,0.012,0.094,0.031,0.121c0.021,0.023,0.055,0.037,0.098,0.037
			c0.018,0,0.057-0.006,0.121-0.021v0.305c-0.041,0.016-0.08,0.027-0.117,0.037c-0.039,0.01-0.072,0.014-0.096,0.014
			c-0.145,0-0.246-0.041-0.305-0.123c-0.039-0.059-0.066-0.148-0.082-0.268c-0.033,0.045-0.072,0.09-0.115,0.133
			C108.429,35.615,108.202,35.705,107.935,35.705z M108.704,34.684v-0.291c-0.088,0.043-0.188,0.074-0.301,0.094l-0.293,0.041
			c-0.182,0.027-0.311,0.072-0.385,0.137c-0.074,0.063-0.111,0.16-0.111,0.293c0,0.125,0.035,0.223,0.107,0.297
			s0.17,0.111,0.289,0.111c0.195,0,0.359-0.059,0.492-0.174c0.102-0.088,0.164-0.189,0.189-0.305
			c0.002-0.018,0.006-0.045,0.008-0.082C108.702,34.764,108.704,34.725,108.704,34.684z"/>
		<path fill="#262424" d="M109.747,33.158h0.174h0.18v0.443c0.029-0.066,0.064-0.129,0.098-0.186c0.143-0.219,0.322-0.33,0.539-0.33
			c0.033,0,0.066,0.002,0.096,0.008v0.441l-0.08-0.008c-0.197,0-0.352,0.064-0.463,0.191s-0.168,0.305-0.168,0.529v1.393h-0.188
			h-0.188V33.158z"/>
		<path fill="#262424" d="M111.104,32.23h0.189h0.188v1.977l0.949-1.049h0.244h0.242l-0.873,0.928l0.912,1.555h-0.236h-0.24
			l-0.711-1.271l-0.287,0.307v0.965h-0.188h-0.189V32.23z"/>
		<path fill="#262424" d="M114.12,35.705c-0.311,0-0.557-0.111-0.74-0.334s-0.275-0.525-0.275-0.904c0-0.432,0.098-0.77,0.287-1.014
			c0.191-0.244,0.453-0.367,0.787-0.367c0.301,0,0.533,0.117,0.703,0.354c0.168,0.234,0.252,0.561,0.252,0.973v0.135h-1.639
			c0.012,0.244,0.064,0.436,0.16,0.572c0.109,0.158,0.27,0.236,0.482,0.236c0.156,0,0.287-0.041,0.391-0.125
			s0.176-0.205,0.215-0.359h0.371c-0.041,0.266-0.148,0.471-0.32,0.617C114.62,35.633,114.396,35.705,114.12,35.705z
			 M114.741,34.207c-0.016-0.232-0.064-0.406-0.141-0.521c-0.102-0.15-0.26-0.229-0.48-0.229c-0.189,0-0.342,0.09-0.457,0.266
			c-0.082,0.129-0.137,0.289-0.164,0.484H114.741z"/>
		<path fill="#262424" d="M116.386,35.643c-0.082,0.023-0.182,0.037-0.301,0.039c-0.156,0-0.27-0.045-0.338-0.133
			s-0.102-0.232-0.102-0.432v-1.613h-0.301v-0.346h0.301v-0.695h0.375v0.695h0.365v0.346h-0.365v1.613
			c0,0.072,0.018,0.125,0.053,0.154c0.037,0.031,0.096,0.047,0.18,0.047c0.051,0,0.094-0.002,0.133-0.01V35.643z"/>
		<path fill="#262424" d="M116.739,32.23h0.383v0.482h-0.383V32.23z M116.741,33.158h0.189h0.188v2.482h-0.188h-0.189V33.158z"/>
		<path fill="#262424" d="M117.657,33.158h0.174h0.18v0.396c0.025-0.051,0.055-0.098,0.086-0.139c0.154-0.219,0.367-0.33,0.635-0.33
			c0.23,0,0.412,0.08,0.545,0.238c0.135,0.158,0.201,0.373,0.201,0.646v1.67h-0.189h-0.188v-1.695c0-0.152-0.039-0.271-0.117-0.357
			s-0.186-0.131-0.32-0.131c-0.195,0-0.352,0.078-0.463,0.229c-0.111,0.152-0.166,0.363-0.166,0.629v1.326h-0.189h-0.188V33.158z"/>
		<path fill="#262424" d="M120.896,36.352c0.184,0,0.33-0.061,0.434-0.182c0.105-0.117,0.158-0.283,0.158-0.49v-0.309l-0.002,0.006
			c-0.148,0.219-0.352,0.328-0.611,0.328c-0.291,0-0.523-0.117-0.701-0.355c-0.178-0.236-0.268-0.551-0.268-0.938
			c0-0.396,0.084-0.717,0.248-0.959c0.166-0.244,0.383-0.367,0.65-0.367c0.283,0,0.504,0.121,0.664,0.365l0.037,0.059v-0.352h0.359
			v2.389c0,0.361-0.088,0.643-0.26,0.846c-0.172,0.201-0.412,0.303-0.721,0.303c-0.268,0-0.479-0.066-0.635-0.197
			c-0.156-0.133-0.244-0.32-0.264-0.563h0.375c0.023,0.133,0.08,0.234,0.174,0.309C120.628,36.314,120.747,36.352,120.896,36.352z
			 M120.897,33.461c-0.207,0-0.359,0.076-0.457,0.232c-0.1,0.156-0.148,0.396-0.148,0.725c0,0.283,0.057,0.508,0.166,0.678
			s0.256,0.256,0.438,0.256c0.184,0,0.332-0.082,0.443-0.242c0.111-0.162,0.166-0.377,0.166-0.646c0-0.32-0.053-0.566-0.158-0.742
			C121.241,33.547,121.091,33.461,120.897,33.461z"/>
	</g>
	<g>
		<circle fill="#E8AD30" cx="64.025" cy="27.51" r="8.202"/>
		<path d="M66.542,27.645l3.688,0.094c-0.242,1.91-0.904,3.385-1.982,4.428c-1.076,1.037-2.482,1.559-4.219,1.559
			c-1.764,0-3.24-0.592-4.427-1.771c-1.186-1.186-1.781-2.652-1.781-4.404c0-1.764,0.607-3.248,1.817-4.453
			c1.211-1.201,2.702-1.803,4.479-1.803c1.744,0,3.201,0.589,4.371,1.771c0.807,0.814,1.381,1.95,1.717,3.408l-3.773,0.251
			c-0.422-1.293-1.223-1.941-2.402-1.941c-0.752,0-1.369,0.26-1.857,0.781c-0.488,0.519-0.734,1.182-0.734,1.986
			c0,0.773,0.24,1.416,0.719,1.92c0.48,0.508,1.086,0.76,1.822,0.76c0.744,0,1.34-0.223,1.781-0.67
			C66.202,29.115,66.462,28.477,66.542,27.645L66.542,27.645z"/>
		<circle fill="#7B4E4B" cx="56.674" cy="34.879" r="1.459"/>
		<ellipse fill="#AE5335" cx="54.38" cy="31.898" rx="1.624" ry="1.615"/>
		<ellipse fill="#D27A3E" cx="53.056" cy="27.965" rx="1.953" ry="1.947"/>
		<circle fill="#F3EC58" cx="53.528" cy="23.227" r="2.278"/>
		<circle fill="#528F57" cx="56.609" cy="19.474" r="1.967"/>
		<circle fill="#4C82A9" cx="60.226" cy="17.78" r="1.599"/>
		<circle fill="#3E6987" cx="63.646" cy="17.298" r="1.345"/>
		<circle fill="#599193" cx="66.4" cy="17.942" r="1.026"/>
		<circle fill="#5E9396" cx="68.46" cy="19.09" r="0.713"/>
		<ellipse fill="#6DA6D8" cx="69.845" cy="20.225" rx="0.518" ry="0.512"/>
		<path fill="#CDE4F7" d="M71.466,21.199c0,0.295-0.238,0.535-0.539,0.535c-0.299,0-0.539-0.24-0.539-0.535
			c0-0.297,0.24-0.537,0.539-0.537C71.228,20.662,71.466,20.902,71.466,21.199z"/>
	</g>
</g>
</svg>
