<?xml version="1.0" encoding="utf-8"?>
<!-- Generator: Adobe Illustrator 16.0.0, SVG Export Plug-In . SVG Version: 6.00 Build 0)  -->
<!DOCTYPE svg PUBLIC "-//W3C//DTD SVG 1.1//EN" "http://www.w3.org/Graphics/SVG/1.1/DTD/svg11.dtd">
<svg version="1.1" id="Camada_1" xmlns="http://www.w3.org/2000/svg" xmlns:xlink="http://www.w3.org/1999/xlink" x="0px" y="0px"
	 width="130px" height="40px" viewBox="0 0 130 40" enable-background="new 0 0 130 40" xml:space="preserve">
<g>
	<path fill="#FFFFFF" d="M24.922,3.131h0.684h1.001c1.325,0,2.366,0.322,3.123,0.969s1.135,1.533,1.135,2.658
		c0,1.174-0.365,2.094-1.094,2.766c-0.729,0.67-1.73,1.006-3.003,1.006h-1.162h-0.684V3.131z M26.29,9.254h0.479
		c0.869,0,1.541-0.211,2.014-0.631c0.474-0.422,0.71-1.02,0.71-1.791c0-0.775-0.25-1.373-0.752-1.795s-1.212-0.633-2.134-0.633
		H26.29V9.254z"/>
	<path fill="#FFFFFF" d="M34.297,10.715c-0.801,0-1.483-0.287-2.048-0.861c-0.565-0.576-0.847-1.273-0.847-2.094
		s0.282-1.52,0.847-2.098s1.248-0.867,2.048-0.867c0.804,0,1.488,0.289,2.053,0.867s0.847,1.277,0.847,2.098
		c0,0.199-0.016,0.395-0.049,0.586h-4.326c0.075,0.242,0.2,0.459,0.376,0.654c0.303,0.332,0.68,0.498,1.133,0.498
		c0.28,0,0.536-0.064,0.769-0.195c0.233-0.129,0.404-0.305,0.515-0.521h1.406c-0.179,0.588-0.516,1.059-1.011,1.408
		S34.945,10.715,34.297,10.715z M35.806,7.281c-0.065-0.293-0.197-0.549-0.396-0.768c-0.299-0.334-0.67-0.502-1.113-0.502
		s-0.814,0.168-1.113,0.502c-0.192,0.223-0.326,0.477-0.4,0.768H35.806z"/>
	<path fill="#FFFFFF" d="M40.066,6.48c-0.033-0.156-0.095-0.273-0.186-0.352s-0.208-0.117-0.352-0.117
		c-0.153,0-0.278,0.043-0.374,0.131S39.01,6.346,39.01,6.484c0,0.135,0.06,0.242,0.181,0.322c0.12,0.082,0.352,0.174,0.693,0.279
		c0.583,0.178,0.999,0.402,1.25,0.67c0.247,0.266,0.371,0.621,0.371,1.064c0,0.557-0.184,1.012-0.552,1.365
		c-0.368,0.352-0.84,0.529-1.417,0.529c-0.583,0-1.064-0.178-1.443-0.535c-0.379-0.355-0.582-0.822-0.608-1.398h1.367
		c0.039,0.234,0.119,0.412,0.24,0.535c0.12,0.121,0.277,0.182,0.469,0.182c0.182,0,0.332-0.051,0.449-0.15
		c0.117-0.102,0.176-0.232,0.176-0.391c0-0.174-0.053-0.307-0.159-0.4c-0.108-0.096-0.314-0.189-0.621-0.283
		c-0.616-0.189-1.058-0.418-1.325-0.686c-0.263-0.264-0.395-0.611-0.395-1.045c0-0.514,0.176-0.934,0.527-1.26
		c0.352-0.324,0.803-0.488,1.354-0.488c0.482,0,0.896,0.162,1.241,0.484s0.533,0.723,0.562,1.201H40.066z"/>
	<path fill="#FFFFFF" d="M44.698,10.715c-0.801,0-1.483-0.287-2.048-0.861c-0.565-0.576-0.847-1.273-0.847-2.094
		s0.282-1.52,0.847-2.098s1.248-0.867,2.048-0.867c0.804,0,1.488,0.289,2.053,0.867s0.847,1.277,0.847,2.098
		c0,0.199-0.016,0.395-0.049,0.586h-4.326C43.298,8.588,43.424,8.805,43.6,9c0.303,0.332,0.68,0.498,1.133,0.498
		c0.28,0,0.536-0.064,0.769-0.195c0.233-0.129,0.404-0.305,0.515-0.521h1.406c-0.179,0.588-0.516,1.059-1.011,1.408
		S45.346,10.715,44.698,10.715z M46.207,7.281c-0.065-0.293-0.197-0.549-0.396-0.768c-0.299-0.334-0.67-0.502-1.113-0.502
		s-0.814,0.168-1.113,0.502c-0.192,0.223-0.326,0.477-0.4,0.768H46.207z"/>
	<path fill="#FFFFFF" d="M48.239,4.98h0.62h0.62v0.479c0.43-0.441,0.944-0.664,1.543-0.664c0.658,0,1.179,0.223,1.565,0.666
		c0.386,0.445,0.579,1.045,0.579,1.801v3.268h-0.664h-0.669V7.559c0-0.508-0.094-0.893-0.283-1.156s-0.464-0.396-0.825-0.396
		c-0.384,0-0.672,0.135-0.864,0.4c-0.192,0.268-0.288,0.668-0.288,1.201v2.922h-0.664h-0.669V4.98z"/>
	<path fill="#FFFFFF" d="M53.527,4.98h0.703h0.708l1.359,3.83h-0.001l1.352-3.83h0.703h0.708l-2.242,5.549h-0.527h-0.527
		L53.527,4.98z"/>
	<path fill="#FFFFFF" d="M60.009,9.854c-0.574-0.576-0.861-1.273-0.861-2.094s0.287-1.52,0.861-2.098s1.271-0.867,2.088-0.867
		c0.82,0,1.518,0.289,2.092,0.867S65.05,6.939,65.05,7.76s-0.287,1.518-0.861,2.094c-0.574,0.574-1.271,0.861-2.092,0.861
		C61.279,10.715,60.583,10.428,60.009,9.854z M63.249,9c0.309-0.332,0.463-0.744,0.463-1.24s-0.154-0.91-0.463-1.246
		c-0.31-0.334-0.693-0.502-1.152-0.502c-0.456,0-0.839,0.168-1.148,0.502c-0.309,0.336-0.463,0.75-0.463,1.246S60.64,8.668,60.948,9
		c0.31,0.332,0.692,0.498,1.148,0.498C62.556,9.498,62.939,9.332,63.249,9z"/>
	<path fill="#FFFFFF" d="M65.642,3.131h0.664h0.669v7.398h-0.664h-0.669V3.131z"/>
	<path fill="#FFFFFF" d="M67.331,4.98h0.703h0.708l1.358,3.83l0,0l1.352-3.83h0.703h0.708l-2.241,5.549h-0.527h-0.527L67.331,4.98z"
		/>
	<path fill="#FFFFFF" d="M73.235,3.131h1.332v1.221h-1.332V3.131z M73.235,4.98h0.664h0.668v5.549h-0.664h-0.668V4.98z"/>
	<path fill="#FFFFFF" d="M77.991,10.715c-0.759,0-1.406-0.287-1.941-0.861c-0.535-0.576-0.803-1.273-0.803-2.094
		s0.277-1.52,0.834-2.098s1.23-0.867,2.021-0.867c0.635,0.008,1.186,0.217,1.65,0.631V3.131h0.664h0.67v7.398h-0.611H79.86V9.928
		C79.343,10.453,78.72,10.715,77.991,10.715z M78.206,6.002c-0.459,0-0.844,0.168-1.155,0.504c-0.312,0.338-0.466,0.756-0.466,1.254
		c0,0.496,0.154,0.91,0.463,1.246c0.31,0.334,0.693,0.502,1.152,0.502c0.463,0,0.85-0.168,1.162-0.502
		c0.313-0.336,0.469-0.752,0.469-1.25c0-0.5-0.154-0.916-0.467-1.252C79.054,6.17,78.668,6.002,78.206,6.002z"/>
	<path fill="#FFFFFF" d="M82.417,9.854c-0.574-0.576-0.861-1.273-0.861-2.094s0.287-1.52,0.861-2.098s1.27-0.867,2.088-0.867
		c0.82,0,1.518,0.289,2.092,0.867s0.861,1.277,0.861,2.098s-0.287,1.518-0.861,2.094c-0.574,0.574-1.271,0.861-2.092,0.861
		C83.687,10.715,82.991,10.428,82.417,9.854z M85.657,9c0.309-0.332,0.463-0.744,0.463-1.24s-0.154-0.91-0.463-1.246
		c-0.311-0.334-0.693-0.502-1.152-0.502c-0.457,0-0.84,0.168-1.148,0.502c-0.309,0.336-0.463,0.75-0.463,1.246
		S83.048,8.668,83.356,9s0.691,0.498,1.148,0.498C84.964,9.498,85.347,9.332,85.657,9z"/>
	<path fill="#FFFFFF" d="M90.573,4.98h0.611H91.8v0.586c0.521-0.518,1.139-0.773,1.855-0.771c0.762,0,1.41,0.289,1.943,0.867
		s0.801,1.277,0.801,2.098s-0.268,1.518-0.801,2.094c-0.533,0.574-1.184,0.861-1.949,0.861c-0.66-0.004-1.24-0.223-1.742-0.66v2.324
		h-0.664h-0.67V4.98z M93.44,9.508c0.459,0,0.844-0.168,1.154-0.502c0.311-0.336,0.467-0.75,0.467-1.246
		c0-0.498-0.154-0.916-0.465-1.254c-0.309-0.336-0.693-0.504-1.152-0.504s-0.842,0.168-1.152,0.502
		c-0.309,0.336-0.463,0.752-0.463,1.252c0,0.498,0.154,0.914,0.463,1.25C92.603,9.34,92.985,9.508,93.44,9.508z"/>
	<path fill="#FFFFFF" d="M97.618,9.854c-0.574-0.576-0.861-1.273-0.861-2.094s0.287-1.52,0.861-2.098s1.27-0.867,2.088-0.867
		c0.82,0,1.518,0.289,2.092,0.867s0.861,1.277,0.861,2.098s-0.287,1.518-0.861,2.094c-0.574,0.574-1.271,0.861-2.092,0.861
		C98.888,10.715,98.192,10.428,97.618,9.854z M100.858,9c0.309-0.332,0.463-0.744,0.463-1.24s-0.154-0.91-0.463-1.246
		c-0.311-0.334-0.693-0.502-1.152-0.502c-0.457,0-0.84,0.168-1.148,0.502c-0.309,0.336-0.463,0.75-0.463,1.246
		S98.249,8.668,98.558,9s0.691,0.498,1.148,0.498C100.165,9.498,100.548,9.332,100.858,9z"/>
	<path fill="#FFFFFF" d="M103.339,4.98h0.619h0.621V5.4l0.063-0.088c0.248-0.344,0.631-0.518,1.148-0.518h0.088v1.27
		c-0.375,0.027-0.662,0.125-0.859,0.293c-0.232,0.203-0.348,0.521-0.348,0.957v3.215h-0.664h-0.668V4.98z"/>
</g>
<g>
	<path fill="#FFFFFF" d="M9.169,19.238v6.984c0,1.137,0.408,1.705,1.223,1.705c0.346,0,0.642-0.12,0.884-0.355
		c0.241-0.237,0.365-0.523,0.365-0.861c0-0.348-0.115-0.639-0.341-0.875c-0.229-0.238-0.508-0.357-0.838-0.357
		c-0.236,0-0.502,0.103-0.806,0.31v-3.522c0.377-0.034,0.663-0.052,0.856-0.052c1.202,0,2.231,0.431,3.09,1.298
		c0.858,0.867,1.286,1.912,1.286,3.131c0,1.251-0.435,2.301-1.307,3.157c-0.872,0.854-1.943,1.282-3.215,1.282
		c-0.64,0-1.261-0.14-1.868-0.419c-0.607-0.277-1.108-0.654-1.499-1.127c-0.687-0.823-1.027-1.886-1.027-3.193v-7.104H9.169
		L9.169,19.238z M16.085,22.506h3.197v4.812c0,0.487,0.201,0.729,0.606,0.729c0.399,0,0.598-0.242,0.598-0.729v-4.812h3.197v4.754
		c0,1.106-0.367,2.04-1.103,2.802c-0.736,0.762-1.636,1.141-2.701,1.141c-1.212,0-2.19-0.441-2.93-1.324
		c-0.575-0.692-0.865-1.648-0.865-2.876V22.506L16.085,22.506z M30.685,22.506v3.367c-0.45,0-0.759,0.086-0.929,0.255
		c-0.165,0.166-0.274,0.499-0.32,0.994c-0.146,1.65-0.786,2.811-1.915,3.488c-0.597,0.353-1.446,0.53-2.547,0.53H24.53v-3.385h0.146
		c0.513,0,0.878-0.107,1.098-0.321c0.218-0.213,0.346-0.589,0.382-1.124c0.044-0.871,0.125-1.485,0.242-1.839
		c0.116-0.353,0.355-0.703,0.715-1.052c0.625-0.611,1.494-0.914,2.605-0.914H30.685L30.685,22.506z M36.755,26.986l3.171-0.121
		c-0.09,1.232-0.548,2.245-1.374,3.039c-0.829,0.79-1.832,1.188-3.02,1.188c-1.251,0-2.312-0.436-3.174-1.308
		c-0.865-0.872-1.297-1.941-1.297-3.208c0-1.203,0.436-2.232,1.308-3.087s1.919-1.282,3.139-1.282c1.065,0,2.005,0.336,2.82,1.01
		c0.816,0.672,1.321,1.529,1.521,2.571l-3.238,0.12c-0.28-0.365-0.633-0.546-1.061-0.546c-0.366,0-0.667,0.12-0.899,0.359
		c-0.234,0.239-0.351,0.542-0.351,0.907c0,0.371,0.125,0.681,0.374,0.932c0.247,0.25,0.556,0.376,0.927,0.376
		C36.143,27.937,36.526,27.618,36.755,26.986L36.755,26.986z M45.85,27.712v3.31c-0.262,0.047-0.502,0.07-0.717,0.07
		c-1.281,0-2.352-0.424-3.206-1.267c-0.856-0.844-1.281-1.9-1.281-3.173c0-1.237,0.432-2.285,1.295-3.146s1.914-1.292,3.15-1.292
		c1.378,0,2.466,0.401,3.261,1.211c0.796,0.806,1.193,1.909,1.193,3.304v4.183h-3.198v-3.952c0-0.449-0.111-0.809-0.331-1.076
		c-0.218-0.27-0.513-0.404-0.883-0.404c-0.336,0-0.628,0.123-0.872,0.367c-0.246,0.246-0.368,0.539-0.368,0.874
		c0,0.355,0.11,0.646,0.332,0.875c0.223,0.229,0.505,0.342,0.847,0.342C45.352,27.937,45.611,27.86,45.85,27.712L45.85,27.712z"/>
	<path fill="#FFFFFF" d="M78.841,27.823v3.31c-0.263,0.047-0.503,0.069-0.718,0.069c-1.281,0-2.352-0.423-3.207-1.267
		c-0.855-0.843-1.281-1.899-1.281-3.172c0-1.237,0.432-2.285,1.296-3.146s1.914-1.293,3.151-1.293c1.377,0,2.465,0.402,3.26,1.211
		c0.796,0.807,1.192,1.909,1.192,3.305v4.182h-3.198V27.07c0-0.45-0.11-0.809-0.329-1.078c-0.219-0.269-0.514-0.401-0.884-0.401
		c-0.336,0-0.628,0.122-0.872,0.368c-0.246,0.244-0.368,0.535-0.368,0.871c0,0.355,0.111,0.645,0.332,0.876
		c0.223,0.228,0.506,0.341,0.846,0.341C78.342,28.047,78.602,27.972,78.841,27.823L78.841,27.823z M88.87,22.412v3.42
		c-0.223-0.125-0.426-0.187-0.606-0.187c-0.581,0-0.873,0.444-0.873,1.331v4.045h-3.197V26.36c0-1.228,0.335-2.213,1.009-2.944
		c0.671-0.732,1.569-1.098,2.694-1.098C88.146,22.318,88.471,22.351,88.87,22.412L88.87,22.412z M92.804,22.496v8.525h-3.196v-8.525
		H92.804L92.804,22.496z M91.214,18.69c0.432,0,0.809,0.151,1.124,0.458c0.317,0.304,0.475,0.665,0.475,1.08
		c0,0.445-0.148,0.813-0.448,1.095c-0.299,0.286-0.684,0.429-1.15,0.429s-0.852-0.143-1.149-0.429
		c-0.3-0.282-0.449-0.649-0.449-1.095c0-0.415,0.158-0.776,0.476-1.08C90.406,18.842,90.782,18.69,91.214,18.69L91.214,18.69z
		 M98.523,22.318c1.209,0,2.245,0.436,3.108,1.304c0.863,0.87,1.296,1.911,1.296,3.126c0,1.229-0.438,2.28-1.313,3.147
		c-0.872,0.865-1.928,1.298-3.166,1.298c-1.237,0-2.293-0.435-3.172-1.305c-0.878-0.869-1.315-1.917-1.315-3.141
		c0-1.249,0.438-2.299,1.315-3.152C96.155,22.744,97.237,22.318,98.523,22.318L98.523,22.318z M98.439,25.474
		c-0.341,0-0.633,0.122-0.872,0.37s-0.359,0.553-0.359,0.91c0,0.356,0.123,0.656,0.365,0.908c0.242,0.251,0.531,0.376,0.866,0.376
		c0.342,0,0.633-0.125,0.876-0.376c0.242-0.252,0.364-0.552,0.364-0.908c0-0.357-0.12-0.662-0.358-0.91
		C99.081,25.596,98.788,25.474,98.439,25.474L98.439,25.474z M109.289,27.097l3.172-0.12c-0.091,1.231-0.55,2.244-1.375,3.038
		c-0.828,0.791-1.832,1.188-3.02,1.188c-1.251,0-2.311-0.435-3.174-1.307c-0.864-0.872-1.296-1.942-1.296-3.208
		c0-1.203,0.435-2.233,1.307-3.088c0.873-0.855,1.921-1.281,3.141-1.281c1.064,0,2.004,0.336,2.817,1.01
		c0.817,0.671,1.322,1.529,1.524,2.57l-3.239,0.12c-0.281-0.363-0.634-0.545-1.063-0.545c-0.364,0-0.665,0.119-0.899,0.358
		c-0.231,0.24-0.35,0.543-0.35,0.908c0,0.37,0.127,0.681,0.373,0.932c0.249,0.251,0.559,0.375,0.929,0.375
		C108.677,28.047,109.061,27.729,109.289,27.097L109.289,27.097z M118.386,27.823v3.31c-0.264,0.047-0.504,0.069-0.719,0.069
		c-1.28,0-2.352-0.423-3.207-1.267c-0.855-0.843-1.281-1.899-1.281-3.172c0-1.237,0.433-2.285,1.296-3.146
		c0.865-0.861,1.914-1.293,3.152-1.293c1.377,0,2.465,0.402,3.259,1.211c0.796,0.807,1.193,1.909,1.193,3.305v4.182h-3.198V27.07
		c0-0.45-0.111-0.809-0.329-1.078c-0.22-0.269-0.515-0.401-0.885-0.401c-0.336,0-0.628,0.122-0.872,0.368
		c-0.246,0.244-0.368,0.535-0.368,0.871c0,0.355,0.111,0.645,0.333,0.876c0.222,0.228,0.505,0.341,0.847,0.341
		C117.887,28.047,118.146,27.972,118.386,27.823L118.386,27.823z"/>
	<g>
		<path fill="#FFFFFF" d="M73.41,31.92h0.205h1.159c0.289,0,0.515,0.085,0.677,0.253c0.163,0.169,0.244,0.404,0.244,0.703
			c0,0.323-0.083,0.573-0.25,0.748s-0.405,0.262-0.713,0.262h-0.911v1.445h-0.206H73.41V31.92z M73.821,33.496h0.809
			c0.219,0,0.38-0.051,0.483-0.149c0.104-0.1,0.155-0.256,0.155-0.469c0-0.194-0.049-0.337-0.146-0.43
			c-0.098-0.092-0.246-0.138-0.448-0.138h-0.854V33.496z"/>
		<path fill="#FFFFFF" d="M76.195,32.849h0.176h0.178v0.443c0.03-0.066,0.063-0.129,0.1-0.186c0.142-0.22,0.32-0.33,0.538-0.33
			c0.035-0.001,0.066,0.001,0.097,0.007v0.441l-0.081-0.008c-0.197,0-0.351,0.064-0.463,0.191c-0.111,0.128-0.168,0.305-0.168,0.529
			v1.394h-0.188h-0.188V32.849z"/>
		<path fill="#FFFFFF" d="M77.704,35.04c-0.191-0.237-0.286-0.551-0.286-0.938c0-0.396,0.095-0.717,0.286-0.96
			c0.19-0.244,0.44-0.366,0.75-0.366c0.313,0,0.563,0.122,0.753,0.366c0.189,0.243,0.285,0.563,0.285,0.96
			c0,0.387-0.096,0.7-0.285,0.938s-0.44,0.355-0.753,0.355C78.145,35.396,77.895,35.277,77.704,35.04z M78.93,34.779
			c0.119-0.171,0.178-0.396,0.178-0.68c0-0.291-0.059-0.523-0.178-0.698c-0.117-0.175-0.277-0.264-0.476-0.264
			s-0.356,0.089-0.475,0.264c-0.119,0.175-0.179,0.407-0.179,0.698c0,0.283,0.06,0.509,0.179,0.68
			c0.118,0.17,0.276,0.255,0.475,0.255S78.813,34.949,78.93,34.779z"/>
		<path fill="#FFFFFF" d="M79.871,32.849h0.167h0.17v0.396l0.054-0.095c0.155-0.249,0.378-0.374,0.666-0.374
			c0.27,0,0.487,0.122,0.652,0.366c0.165,0.243,0.247,0.563,0.247,0.96c0,0.362-0.093,0.668-0.277,0.918
			c-0.185,0.251-0.41,0.375-0.678,0.375c-0.266,0-0.472-0.104-0.621-0.315l-0.006-0.006v1.245h-0.187h-0.188V32.849z M80.831,35.042
			c0.186,0,0.333-0.086,0.444-0.256c0.11-0.171,0.166-0.396,0.166-0.678c0-0.328-0.05-0.569-0.147-0.725
			c-0.099-0.156-0.252-0.233-0.46-0.233c-0.194,0-0.343,0.091-0.447,0.274c-0.105,0.184-0.159,0.444-0.159,0.783
			c0,0.252,0.057,0.454,0.166,0.605C80.504,34.966,80.649,35.042,80.831,35.042z"/>
		<path fill="#FFFFFF" d="M82.844,35.396c-0.214,0-0.387-0.064-0.518-0.195s-0.196-0.304-0.196-0.517
			c0-0.221,0.057-0.399,0.173-0.533c0.115-0.135,0.279-0.217,0.492-0.245l0.463-0.057c0.069-0.01,0.134-0.021,0.193-0.037
			c0.049-0.013,0.088-0.039,0.117-0.081c0.031-0.042,0.045-0.092,0.045-0.148v-0.073c0-0.123-0.045-0.218-0.133-0.287
			c-0.089-0.068-0.214-0.103-0.378-0.103c-0.156,0-0.276,0.041-0.36,0.12c-0.085,0.08-0.134,0.198-0.147,0.356h-0.355
			c0.023-0.278,0.11-0.484,0.262-0.619c0.15-0.134,0.369-0.2,0.658-0.2c0.264,0,0.468,0.064,0.611,0.193
			c0.146,0.13,0.22,0.309,0.22,0.539v1.379c0,0.055,0.011,0.094,0.031,0.12c0.021,0.024,0.054,0.037,0.099,0.037
			c0.017,0,0.057-0.006,0.119-0.021v0.305c-0.038,0.016-0.078,0.027-0.117,0.036c-0.039,0.01-0.07,0.015-0.094,0.015
			c-0.144,0-0.245-0.041-0.305-0.123c-0.04-0.059-0.066-0.148-0.084-0.269c-0.032,0.046-0.071,0.091-0.114,0.134
			C83.339,35.305,83.111,35.396,82.844,35.396z M83.613,34.374v-0.292c-0.088,0.044-0.188,0.074-0.299,0.094l-0.296,0.042
			c-0.18,0.026-0.309,0.071-0.383,0.136c-0.076,0.063-0.111,0.161-0.111,0.293c0,0.125,0.034,0.223,0.107,0.297
			c0.071,0.074,0.168,0.111,0.288,0.111c0.194,0,0.359-0.058,0.493-0.173c0.103-0.088,0.164-0.189,0.188-0.305
			c0.003-0.019,0.006-0.046,0.008-0.083C83.612,34.454,83.613,34.415,83.613,34.374z"/>
		<path fill="#FFFFFF" d="M85.489,36.041c0.186,0,0.33-0.061,0.435-0.181c0.104-0.118,0.157-0.283,0.157-0.491v-0.308l-0.002,0.006
			c-0.147,0.219-0.351,0.328-0.61,0.328c-0.29,0-0.523-0.118-0.702-0.355c-0.177-0.237-0.267-0.551-0.267-0.938
			c0-0.396,0.083-0.717,0.248-0.96c0.165-0.244,0.382-0.366,0.649-0.366c0.283,0,0.503,0.121,0.664,0.365l0.038,0.058v-0.351h0.358
			v2.388c0,0.361-0.087,0.643-0.258,0.846c-0.173,0.201-0.413,0.303-0.722,0.303c-0.268,0-0.479-0.065-0.635-0.196
			c-0.156-0.133-0.244-0.32-0.265-0.563h0.376c0.022,0.133,0.08,0.234,0.173,0.308C85.222,36.005,85.342,36.041,85.489,36.041z
			 M85.491,33.15c-0.207,0-0.359,0.077-0.457,0.233c-0.099,0.155-0.147,0.396-0.147,0.725c0,0.282,0.056,0.507,0.166,0.678
			c0.108,0.17,0.254,0.256,0.437,0.256c0.186,0,0.332-0.082,0.443-0.243c0.111-0.162,0.167-0.377,0.167-0.646
			c0-0.321-0.054-0.567-0.158-0.742C85.836,33.237,85.686,33.15,85.491,33.15z"/>
		<path fill="#FFFFFF" d="M87.551,35.396c-0.215,0-0.387-0.064-0.518-0.195s-0.198-0.304-0.198-0.517
			c0-0.221,0.059-0.399,0.174-0.533c0.114-0.135,0.279-0.217,0.493-0.245l0.462-0.057c0.07-0.01,0.135-0.021,0.193-0.037
			c0.049-0.013,0.089-0.039,0.118-0.081s0.045-0.092,0.045-0.148v-0.073c0-0.123-0.045-0.218-0.134-0.287
			c-0.089-0.068-0.215-0.103-0.377-0.103c-0.156,0-0.276,0.041-0.36,0.12c-0.086,0.08-0.135,0.198-0.148,0.356h-0.356
			c0.024-0.278,0.111-0.484,0.262-0.619c0.151-0.134,0.37-0.2,0.66-0.2c0.262,0,0.466,0.064,0.612,0.193
			c0.146,0.13,0.218,0.309,0.218,0.539v1.379c0,0.055,0.01,0.094,0.032,0.12c0.021,0.024,0.054,0.037,0.098,0.037
			c0.017,0,0.058-0.006,0.119-0.021v0.305c-0.039,0.016-0.077,0.027-0.116,0.036c-0.04,0.01-0.071,0.015-0.094,0.015
			c-0.145,0-0.246-0.041-0.306-0.123c-0.039-0.059-0.067-0.148-0.085-0.269c-0.031,0.046-0.069,0.091-0.114,0.134
			C88.045,35.305,87.817,35.396,87.551,35.396z M88.32,34.374v-0.292c-0.088,0.044-0.188,0.074-0.3,0.094l-0.294,0.042
			c-0.183,0.026-0.311,0.071-0.385,0.136c-0.075,0.063-0.112,0.161-0.112,0.293c0,0.125,0.036,0.223,0.109,0.297
			c0.07,0.074,0.167,0.111,0.288,0.111c0.194,0,0.359-0.058,0.492-0.173c0.103-0.088,0.165-0.189,0.188-0.305
			c0.005-0.019,0.007-0.046,0.008-0.083C88.319,34.454,88.32,34.415,88.32,34.374z"/>
		<path fill="#FFFFFF" d="M89.312,32.849h0.175h0.178v0.396c0.027-0.051,0.057-0.098,0.087-0.139c0.156-0.22,0.368-0.33,0.636-0.33
			c0.23,0,0.411,0.08,0.545,0.238c0.133,0.158,0.199,0.373,0.199,0.646v1.67h-0.188h-0.188v-1.696c0-0.152-0.038-0.271-0.117-0.357
			c-0.077-0.086-0.185-0.13-0.321-0.13c-0.195,0-0.349,0.077-0.461,0.229c-0.113,0.152-0.169,0.362-0.169,0.629v1.326h-0.188h-0.188
			V32.849z"/>
		<path fill="#FFFFFF" d="M92.49,35.396c-0.284,0-0.514-0.125-0.689-0.378c-0.176-0.252-0.264-0.583-0.264-0.992
			c0-0.375,0.083-0.677,0.248-0.906c0.165-0.228,0.382-0.343,0.653-0.343c0.281,0,0.503,0.122,0.662,0.367l0.041,0.06V31.92h0.188
			h0.188v3.411h-0.176h-0.178v-0.346l-0.048,0.082C92.966,35.286,92.757,35.396,92.49,35.396z M92.531,33.155
			c-0.213,0-0.368,0.075-0.464,0.229c-0.098,0.152-0.146,0.395-0.146,0.729c0,0.281,0.056,0.506,0.166,0.677
			c0.111,0.169,0.259,0.254,0.44,0.254c0.186,0,0.334-0.082,0.444-0.243c0.113-0.162,0.169-0.377,0.169-0.646
			c0-0.32-0.053-0.566-0.16-0.74C92.877,33.24,92.727,33.155,92.531,33.155z"/>
		<path fill="#FFFFFF" d="M94.609,35.396c-0.213,0-0.385-0.064-0.518-0.195c-0.131-0.131-0.196-0.304-0.196-0.517
			c0-0.221,0.058-0.399,0.174-0.533c0.114-0.135,0.278-0.217,0.492-0.245l0.463-0.057c0.068-0.01,0.133-0.021,0.192-0.037
			c0.05-0.013,0.089-0.039,0.119-0.081c0.029-0.042,0.044-0.092,0.044-0.148v-0.073c0-0.123-0.044-0.218-0.134-0.287
			c-0.089-0.068-0.214-0.103-0.378-0.103c-0.156,0-0.275,0.041-0.36,0.12c-0.085,0.08-0.134,0.198-0.147,0.356h-0.355
			c0.023-0.278,0.111-0.484,0.262-0.619c0.15-0.134,0.37-0.2,0.658-0.2c0.264,0,0.468,0.064,0.612,0.193
			c0.146,0.13,0.219,0.309,0.219,0.539v1.379c0,0.055,0.011,0.094,0.031,0.12c0.022,0.024,0.054,0.037,0.099,0.037
			c0.017,0,0.057-0.006,0.119-0.021v0.305c-0.038,0.016-0.077,0.027-0.117,0.036c-0.039,0.01-0.069,0.015-0.094,0.015
			c-0.143,0-0.245-0.041-0.305-0.123c-0.039-0.059-0.066-0.148-0.084-0.269c-0.032,0.046-0.069,0.091-0.114,0.134
			C95.104,35.305,94.878,35.396,94.609,35.396z M95.38,34.374v-0.292c-0.088,0.044-0.188,0.074-0.3,0.094l-0.295,0.042
			c-0.181,0.026-0.309,0.071-0.383,0.136c-0.075,0.063-0.112,0.161-0.112,0.293c0,0.125,0.036,0.223,0.107,0.297
			c0.072,0.074,0.168,0.111,0.288,0.111c0.196,0,0.359-0.058,0.493-0.173c0.103-0.088,0.164-0.189,0.188-0.305
			c0.003-0.019,0.006-0.046,0.008-0.083C95.379,34.454,95.38,34.415,95.38,34.374z"/>
		<path fill="#FFFFFF" d="M98.973,32.662c0-0.224,0.068-0.405,0.206-0.544c0.138-0.138,0.317-0.207,0.541-0.207
			c0.208,0,0.374,0.066,0.501,0.199c0.127,0.134,0.191,0.308,0.191,0.524c0,0.178-0.065,0.356-0.196,0.538
			c-0.1,0.142-0.225,0.263-0.375,0.364l0.521,0.719l0.031,0.044c0.065-0.179,0.108-0.361,0.128-0.554h0.352
			c-0.022,0.224-0.074,0.446-0.157,0.668c-0.025,0.07-0.054,0.136-0.084,0.2l0.549,0.717h-0.497l-0.277-0.362
			c-0.121,0.141-0.256,0.248-0.403,0.323c-0.147,0.073-0.31,0.111-0.485,0.111c-0.27,0-0.486-0.082-0.652-0.244
			c-0.166-0.164-0.249-0.378-0.249-0.645c0-0.252,0.066-0.472,0.203-0.657c0.106-0.145,0.267-0.285,0.479-0.42l-0.05-0.064
			c-0.08-0.115-0.147-0.237-0.198-0.368C98.998,32.875,98.973,32.76,98.973,32.662z M99.545,35.042c0.111,0,0.221-0.026,0.328-0.076
			c0.106-0.051,0.196-0.119,0.27-0.208l0.05-0.067l-0.241-0.329l-0.452-0.626c-0.141,0.085-0.252,0.176-0.336,0.273
			c-0.118,0.139-0.178,0.293-0.178,0.459c0,0.176,0.05,0.317,0.149,0.42C99.235,34.99,99.373,35.042,99.545,35.042z M99.349,32.63
			c0,0.07,0.02,0.152,0.058,0.247c0.04,0.094,0.093,0.188,0.161,0.283l0.063,0.088c0.104-0.069,0.19-0.148,0.262-0.234
			c0.103-0.126,0.154-0.251,0.154-0.378c0-0.113-0.033-0.203-0.096-0.269c-0.062-0.066-0.147-0.1-0.254-0.1
			c-0.107,0-0.191,0.033-0.255,0.099C99.381,32.431,99.349,32.519,99.349,32.63z"/>
		<path fill="#FFFFFF" d="M104.299,35.331h-0.2h-0.201V31.92h0.294h0.296l0.879,2.869l0.877-2.869h0.296h0.295v3.411h-0.193h-0.196
			v-2.872l0,0l-0.876,2.872h-0.196h-0.195l-0.878-2.872l0,0V35.331z"/>
		<path fill="#FFFFFF" d="M107.99,35.396c-0.214,0-0.387-0.064-0.518-0.195c-0.132-0.131-0.197-0.304-0.197-0.517
			c0-0.221,0.058-0.399,0.173-0.533c0.115-0.135,0.278-0.217,0.492-0.245l0.463-0.057c0.07-0.01,0.135-0.021,0.193-0.037
			c0.05-0.013,0.089-0.039,0.118-0.081c0.03-0.042,0.045-0.092,0.045-0.148v-0.073c0-0.123-0.045-0.218-0.133-0.287
			c-0.089-0.068-0.216-0.103-0.378-0.103c-0.156,0-0.276,0.041-0.361,0.12c-0.084,0.08-0.134,0.198-0.147,0.356h-0.356
			c0.024-0.278,0.111-0.484,0.264-0.619c0.149-0.134,0.369-0.2,0.657-0.2c0.263,0,0.467,0.064,0.612,0.193
			c0.146,0.13,0.219,0.309,0.219,0.539v1.379c0,0.055,0.012,0.094,0.032,0.12c0.021,0.024,0.054,0.037,0.098,0.037
			c0.017,0,0.057-0.006,0.12-0.021v0.305c-0.04,0.016-0.079,0.027-0.117,0.036c-0.039,0.01-0.071,0.015-0.095,0.015
			c-0.145,0-0.246-0.041-0.305-0.123c-0.04-0.059-0.066-0.148-0.083-0.269c-0.033,0.046-0.071,0.091-0.115,0.134
			C108.484,35.305,108.258,35.396,107.99,35.396z M108.76,34.374v-0.292c-0.089,0.044-0.188,0.074-0.301,0.094l-0.294,0.042
			c-0.181,0.026-0.31,0.071-0.384,0.136c-0.075,0.063-0.111,0.161-0.111,0.293c0,0.125,0.035,0.223,0.107,0.297
			s0.169,0.111,0.289,0.111c0.194,0,0.359-0.058,0.492-0.173c0.102-0.088,0.164-0.189,0.188-0.305
			c0.003-0.019,0.006-0.046,0.008-0.083C108.758,34.454,108.76,34.415,108.76,34.374z"/>
		<path fill="#FFFFFF" d="M109.803,32.849h0.174h0.179v0.443c0.03-0.066,0.064-0.129,0.099-0.186c0.143-0.22,0.322-0.33,0.539-0.33
			c0.033-0.001,0.065,0.001,0.096,0.007v0.441l-0.081-0.008c-0.196,0-0.352,0.064-0.462,0.191c-0.112,0.128-0.168,0.305-0.168,0.529
			v1.394h-0.188h-0.188V32.849z"/>
		<path fill="#FFFFFF" d="M111.16,31.92h0.189h0.188v1.978l0.948-1.049h0.244h0.243l-0.874,0.927l0.912,1.556h-0.236h-0.239
			l-0.712-1.271l-0.286,0.307v0.965h-0.188h-0.189V31.92z"/>
		<path fill="#FFFFFF" d="M114.175,35.396c-0.311,0-0.556-0.111-0.739-0.335c-0.184-0.223-0.275-0.524-0.275-0.904
			c0-0.431,0.097-0.769,0.286-1.013c0.191-0.245,0.454-0.367,0.787-0.367c0.301,0,0.534,0.117,0.703,0.353
			c0.168,0.235,0.253,0.561,0.253,0.974v0.134h-1.64c0.012,0.245,0.064,0.437,0.161,0.573c0.108,0.157,0.27,0.235,0.482,0.235
			c0.156,0,0.286-0.041,0.391-0.125c0.104-0.084,0.175-0.204,0.214-0.359h0.371c-0.041,0.267-0.147,0.472-0.32,0.618
			C114.676,35.323,114.451,35.396,114.175,35.396z M114.797,33.896c-0.017-0.231-0.064-0.406-0.142-0.521
			c-0.101-0.15-0.26-0.228-0.479-0.228c-0.189,0-0.342,0.089-0.457,0.265c-0.083,0.129-0.138,0.29-0.165,0.484H114.797z"/>
		<path fill="#FFFFFF" d="M116.44,35.333c-0.082,0.023-0.182,0.036-0.301,0.039c-0.156,0-0.269-0.045-0.337-0.134
			c-0.069-0.088-0.103-0.232-0.103-0.431v-1.613h-0.301v-0.346h0.301v-0.696h0.376v0.696h0.364v0.346h-0.364v1.613
			c0,0.072,0.018,0.124,0.053,0.154c0.036,0.031,0.096,0.046,0.179,0.046c0.051,0,0.095-0.002,0.133-0.009V35.333z"/>
		<path fill="#FFFFFF" d="M116.795,31.92h0.383v0.483h-0.383V31.92z M116.797,32.849h0.189h0.188v2.482h-0.188h-0.189V32.849z"/>
		<path fill="#FFFFFF" d="M117.712,32.849h0.175h0.179v0.396c0.026-0.051,0.055-0.098,0.087-0.139c0.154-0.22,0.367-0.33,0.635-0.33
			c0.23,0,0.412,0.08,0.545,0.238c0.134,0.158,0.2,0.373,0.2,0.646v1.67h-0.188h-0.188v-1.696c0-0.152-0.04-0.271-0.118-0.357
			c-0.077-0.086-0.185-0.13-0.319-0.13c-0.196,0-0.352,0.077-0.463,0.229c-0.112,0.152-0.167,0.362-0.167,0.629v1.326h-0.189h-0.188
			V32.849z"/>
		<path fill="#FFFFFF" d="M120.95,36.041c0.185,0,0.33-0.061,0.435-0.181c0.104-0.118,0.157-0.283,0.157-0.491v-0.308l-0.002,0.006
			c-0.147,0.219-0.351,0.328-0.61,0.328c-0.291,0-0.524-0.118-0.702-0.355c-0.177-0.237-0.267-0.551-0.267-0.938
			c0-0.396,0.083-0.717,0.248-0.96c0.166-0.244,0.382-0.366,0.649-0.366c0.283,0,0.504,0.121,0.664,0.365l0.037,0.058v-0.351h0.359
			v2.388c0,0.361-0.087,0.643-0.259,0.846c-0.172,0.201-0.412,0.303-0.721,0.303c-0.268,0-0.479-0.065-0.635-0.196
			c-0.157-0.133-0.244-0.32-0.265-0.563h0.376c0.022,0.133,0.08,0.234,0.173,0.308C120.683,36.005,120.803,36.041,120.95,36.041z
			 M120.952,33.15c-0.206,0-0.359,0.077-0.457,0.233c-0.099,0.155-0.147,0.396-0.147,0.725c0,0.282,0.056,0.507,0.165,0.678
			c0.11,0.17,0.256,0.256,0.438,0.256c0.185,0,0.332-0.082,0.443-0.243c0.111-0.162,0.166-0.377,0.166-0.646
			c0-0.321-0.053-0.567-0.157-0.742C121.297,33.237,121.146,33.15,120.952,33.15z"/>
	</g>
	<g>
		<circle fill="#E8AD30" cx="64.08" cy="27.199" r="8.202"/>
		<path fill="#FFFFFF" d="M66.598,27.334l3.688,0.094c-0.242,1.911-0.904,3.385-1.982,4.428c-1.077,1.038-2.483,1.56-4.219,1.56
			c-1.764,0-3.24-0.593-4.428-1.772c-1.186-1.186-1.781-2.651-1.781-4.403c0-1.765,0.607-3.248,1.817-4.453
			c1.212-1.202,2.702-1.804,4.479-1.804c1.745,0,3.202,0.59,4.371,1.771c0.808,0.814,1.382,1.95,1.718,3.408l-3.774,0.25
			c-0.421-1.293-1.223-1.941-2.401-1.941c-0.752,0-1.37,0.261-1.857,0.781c-0.489,0.52-0.735,1.182-0.735,1.987
			c0,0.772,0.24,1.415,0.72,1.92c0.48,0.508,1.086,0.759,1.821,0.759c0.745,0,1.341-0.222,1.781-0.669
			C66.257,28.805,66.517,28.166,66.598,27.334L66.598,27.334z"/>
		<circle fill="#7B4E4B" cx="56.729" cy="34.569" r="1.459"/>
		<ellipse fill="#AE5335" cx="54.435" cy="31.589" rx="1.624" ry="1.614"/>
		<circle fill="#D27A3E" cx="53.111" cy="27.654" r="1.953"/>
		<circle fill="#F3EC58" cx="53.583" cy="22.917" r="2.278"/>
		<circle fill="#528F57" cx="56.665" cy="19.164" r="1.967"/>
		<circle fill="#4C82A9" cx="60.282" cy="17.47" r="1.599"/>
		<circle fill="#3E6987" cx="63.702" cy="16.988" r="1.344"/>
		<circle fill="#599193" cx="66.455" cy="17.633" r="1.026"/>
		<circle fill="#5E9396" cx="68.515" cy="18.779" r="0.713"/>
		<ellipse fill="#6DA6D8" cx="69.9" cy="19.914" rx="0.518" ry="0.512"/>
		<circle fill="#CDE4F7" cx="70.982" cy="20.889" r="0.54"/>
	</g>
</g>
</svg>
