<?xml version="1.0"?>
<svg version="1.1" xmlns="http://www.w3.org/2000/svg" xmlns:xlink="http://www.w3.org/1999/xlink" width="280" height="60">
    <desc iVinci="yes" version="4.6" gridStep="20" showGrid="no" snapToGrid="no" codePlatform="0"/>
    <g id="Layer1" name="Layer 1" opacity="1">
        <g id="Shape1">
            <desc shapeID="1" type="2" basicInfo-basicType="0" basicInfo-roundedRectRadius="12" basicInfo-polygonSides="6" basicInfo-starPoints="5" bounding="rect(-133,-37,266,74)" text="SARTER-KIT" font-familyName="Helvetica" font-pixelSize="40" font-bold="0" font-underline="0" font-alignment="1" strokeStyle="0" markerStart="0" markerEnd="0" shadowEnabled="0" shadowOffsetX="0" shadowOffsetY="2" shadowBlur="4" shadowOpacity="160" blurEnabled="0" blurRadius="4" transform="matrix(1,0,0,1,139.5,33.5)" pers-center="0,0" pers-size="0,0" pers-start="0,0" pers-end="0,0" locked="0" mesh="" flag=""/>
            <path id="shapePath1" d="M26.5859,35.0391 C26.6771,36.6667 27.0612,37.9883 27.7383,39.0039 C29.0273,40.9049 31.2995,41.8555 34.5547,41.8555 C36.013,41.8555 37.3411,41.6471 38.539,41.2305 C40.8568,40.4232 42.0156,38.9779 42.0156,36.8945 C42.0156,35.332 41.5273,34.2188 40.5508,33.5547 C39.5612,32.9036 38.0117,32.3372 35.9023,31.8555 L32.0156,30.9766 C29.4765,30.4036 27.6797,29.7721 26.625,29.082 C24.8021,27.8841 23.8906,26.0938 23.8906,23.7109 C23.8906,21.1328 24.7825,19.0169 26.5664,17.3633 C28.3502,15.7096 30.8763,14.8828 34.1445,14.8828 C37.1523,14.8828 39.7077,15.6087 41.8105,17.0605 C43.9134,18.5124 44.9648,20.8333 44.9648,24.0234 L41.3125,24.0234 C41.1172,22.487 40.7005,21.3086 40.0625,20.4883 C38.8776,18.9909 36.8659,18.2422 34.0273,18.2422 C31.7357,18.2422 30.0885,18.724 29.0859,19.6875 C28.0833,20.651 27.582,21.7708 27.582,23.0469 C27.582,24.4531 28.168,25.4818 29.3398,26.1328 C30.1081,26.5495 31.8463,27.0703 34.5547,27.6953 L38.5781,28.6133 C40.5182,29.056 42.0156,29.6615 43.0703,30.4297 C44.8932,31.7708 45.8047,33.7174 45.8047,36.2695 C45.8047,39.4466 44.6491,41.7188 42.3379,43.0859 C40.0267,44.4531 37.3411,45.1367 34.2812,45.1367 C30.7135,45.1367 27.9206,44.2253 25.9023,42.4023 C23.8841,40.5924 22.8945,38.138 22.9336,35.0391 L26.5859,35.0391 M65.4453,32.5391 L61.0898,19.8633 L56.4609,32.5391 L65.4453,32.5391 M59.0586,15.6055 L63.4531,15.6055 L73.8633,44.2969 L69.6055,44.2969 L66.6953,35.7031 L55.3476,35.7031 L52.2422,44.2969 L48.2578,44.2969 L59.0586,15.6055 M90.7305,28.75 C92.5534,28.75 93.9954,28.3854 95.0566,27.6562 C96.1178,26.9271 96.6484,25.612 96.6484,23.7109 C96.6484,21.6667 95.9062,20.2734 94.4219,19.5312 C93.6276,19.1406 92.5664,18.9453 91.2383,18.9453 L81.7461,18.9453 L81.7461,28.75 L90.7305,28.75 M77.8594,15.6055 L91.1406,15.6055 C93.3281,15.6055 95.1315,15.9245 96.5508,16.5625 C99.2461,17.7865 100.594,20.0456 100.594,23.3398 C100.594,25.0586 100.239,26.4648 99.5293,27.5586 C98.8196,28.6523 97.8268,29.5312 96.5508,30.1953 C97.6706,30.651 98.5137,31.25 99.0801,31.9922 C99.6465,32.7344 99.9622,33.9388 100.027,35.6055 L100.164,39.4531 C100.203,40.5469 100.294,41.3607 100.437,41.8945 C100.672,42.806 101.089,43.3919 101.687,43.6523 L101.687,44.2969 L96.9219,44.2969 C96.7917,44.0495 96.6875,43.7305 96.6094,43.3398 C96.5312,42.9492 96.4661,42.194 96.414,41.0742 L96.1797,36.2891 C96.0885,34.4141 95.3919,33.1576 94.0898,32.5195 C93.3476,32.168 92.1823,31.9922 90.5937,31.9922 L81.7461,31.9922 L81.7461,44.2969 L77.8594,44.2969 L77.8594,15.6055 M126.441,15.6055 L126.441,19.0234 L116.773,19.0234 L116.773,44.2969 L112.828,44.2969 L112.828,19.0234 L103.16,19.0234 L103.16,15.6055 L126.441,15.6055 M130.355,15.6055 L151.273,15.6055 L151.273,19.1211 L134.145,19.1211 L134.145,27.832 L149.984,27.832 L149.984,31.1523 L134.145,31.1523 L134.145,40.8789 L151.566,40.8789 L151.566,44.2969 L130.355,44.2969 L130.355,15.6055 M169.996,28.75 C171.819,28.75 173.261,28.3854 174.322,27.6562 C175.383,26.9271 175.914,25.612 175.914,23.7109 C175.914,21.6667 175.172,20.2734 173.687,19.5312 C172.893,19.1406 171.832,18.9453 170.504,18.9453 L161.012,18.9453 L161.012,28.75 L169.996,28.75 M157.125,15.6055 L170.406,15.6055 C172.594,15.6055 174.397,15.9245 175.816,16.5625 C178.512,17.7865 179.859,20.0456 179.859,23.3398 C179.859,25.0586 179.505,26.4648 178.795,27.5586 C178.085,28.6523 177.092,29.5312 175.816,30.1953 C176.936,30.651 177.779,31.25 178.346,31.9922 C178.912,32.7344 179.228,33.9388 179.293,35.6055 L179.43,39.4531 C179.469,40.5469 179.56,41.3607 179.703,41.8945 C179.937,42.806 180.354,43.3919 180.953,43.6523 L180.953,44.2969 L176.187,44.2969 C176.057,44.0495 175.953,43.7305 175.875,43.3398 C175.797,42.9492 175.732,42.194 175.68,41.0742 L175.445,36.2891 C175.354,34.4141 174.658,33.1576 173.355,32.5195 C172.613,32.168 171.448,31.9922 169.859,31.9922 L161.012,31.9922 L161.012,44.2969 L157.125,44.2969 L157.125,15.6055 M184.145,31.3477 L193.949,31.3477 L193.949,34.9609 L184.145,34.9609 L184.145,31.3477 M198.844,15.6055 L202.633,15.6055 L202.633,29.5898 L216.617,15.6055 L221.988,15.6055 L210.055,27.168 L222.32,44.2969 L217.262,44.2969 L207.223,29.9023 L202.633,34.2969 L202.633,44.2969 L198.844,44.2969 L198.844,15.6055 M226.395,15.6055 L230.32,15.6055 L230.32,44.2969 L226.395,44.2969 L226.395,15.6055 M257.504,15.6055 L257.504,19.0234 L247.836,19.0234 L247.836,44.2969 L243.891,44.2969 L243.891,19.0234 L234.223,19.0234 L234.223,15.6055 L257.504,15.6055 Z" style="stroke:none;fill-rule:nonzero;fill:#ef5734;fill-opacity:1;"/>
        </g>
    </g>
</svg>
